<?xml version="1.0" encoding="UTF-8" standalone="no"?>
<svg
   width="96"
   height="96"
   viewBox="0 0 96 96"
   fill="none"
   version="1.1"
   id="svg11"
   sodipodi:docname="seerr.svg"
   inkscape:version="1.4.3 (0d15f75, 2025-12-25)"
   xmlns:inkscape="http://www.inkscape.org/namespaces/inkscape"
   xmlns:sodipodi="http://sodipodi.sourceforge.net/DTD/sodipodi-0.dtd"
   xmlns="http://www.w3.org/2000/svg"
   xmlns:svg="http://www.w3.org/2000/svg">
  <sodipodi:namedview
     id="namedview11"
     pagecolor="#ffffff"
     bordercolor="#000000"
     borderopacity="0.25"
     inkscape:showpageshadow="2"
     inkscape:pageopacity="0.0"
     inkscape:pagecheckerboard="0"
     inkscape:deskcolor="#d1d1d1"
     inkscape:zoom="6.5440317"
     inkscape:cx="56.769285"
     inkscape:cy="43.092701"
     inkscape:window-width="1620"
     inkscape:window-height="1010"
     inkscape:window-x="-6"
     inkscape:window-y="-6"
     inkscape:window-maximized="1"
     inkscape:current-layer="svg11" />
  <circle
     cx="52"
     cy="52"
     r="28"
     fill="#131928"
     id="circle1" />
  <path
     fill-rule="evenodd"
     clip-rule="evenodd"
     d="M 48,96 C 74.5097,96 96,74.5097 96,48 96,21.4903 74.5097,0 48,0 21.4903,0 0,21.4903 0,48 0,74.5097 21.4903,96 48,96 Z M 80.0001,52 c 0,15.464 -12.536,28 -28,28 -15.464,0 -28,-12.536 -28,-28 0,-2.8697 0.4317,-5.6385 1.2337,-8.2452 2.195,4.8617 7.0856,8.2452 12.7663,8.2452 7.732,0 14,-6.268 14,-14 0,-5.6808 -3.3835,-10.5713 -8.2451,-12.7663 C 46.3616,24.4317 49.1304,24 52.0001,24 c 15.464,0 28,12.536 28,28 z"
     fill="url(#paint0_linear_311_158)"
     id="path1"
     style="fill:url(#paint0_linear_311_158)" />
  <path
     opacity="0.2"
     fill-rule="evenodd"
     clip-rule="evenodd"
     d="m 80.0002,52 c 0,15.464 -12.536,28 -28,28 C 36.864,80 24.5329,67.9897 24.017,52.9791 24.0057,53.318 24,53.6583 24,54 24,70.5685 37.4315,84 54,84 70.5685,84 84,70.5685 84,54 84,37.4315 70.5685,24 54,24 53.6597,24 53.3207,24.0057 52.9831,24.0169 67.9919,24.5347 80.0002,36.865 80.0002,52 Z"
     fill="#131928"
     id="path2" />
  <path
     fill-rule="evenodd"
     clip-rule="evenodd"
     d="M 48,12 C 28.1177,12 12,28.1177 12,48 12,50.2091 10.2091,52 8,52 5.79086,52 4,50.2091 4,48 4,23.6995 23.6995,4 48,4 c 2.2091,0 4,1.79086 4,4 0,2.2091 -1.7909,4 -4,4 z"
     fill="url(#paint1_linear_311_158)"
     id="path3"
     style="fill:url(#paint1_linear_311_158)" />
  <defs
     id="defs11">
    <linearGradient
       id="paint0_linear_311_158"
       x1="48"
       y1="-2.07126e-06"
       x2="117.5"
       y2="69.5"
       gradientUnits="userSpaceOnUse">
      <stop
         stop-color="#C395FC"
         id="stop8" />
      <stop
         offset="1"
         stop-color="#4F65F5"
         id="stop9" />
    </linearGradient>
    <linearGradient
       id="paint1_linear_311_158"
       x1="28"
       y1="8"
       x2="28"
       y2="48"
       gradientUnits="userSpaceOnUse">
      <stop
         stop-color="white"
         stop-opacity="0.4"
         id="stop10" />
      <stop
         offset="1"
         stop-color="white"
         stop-opacity="0"
         id="stop11" />
    </linearGradient>
  </defs>
</svg>
